<mxfile host="app.diagrams.net" modified="2022-03-18T14:38:05.420Z" agent="5.0 (Macintosh; Intel Mac OS X 10_15_7) AppleWebKit/605.1.15 (KHTML, like Gecko) Version/15.3 Safari/605.1.15" etag="_gDsy_NLkjXAaiePOFx6" version="17.1.3" type="github">
  <diagram id="0WftQ7NrcI0vq5HRIVxM" name="Page-1">
    <mxGraphModel dx="1519" dy="508" grid="1" gridSize="10" guides="1" tooltips="1" connect="1" arrows="1" fold="1" page="1" pageScale="1" pageWidth="827" pageHeight="1169" math="0" shadow="0">
      <root>
        <mxCell id="0" />
        <mxCell id="1" parent="0" />
        <mxCell id="iAAeEu0Drj7qGyw_ox6g-111" style="edgeStyle=orthogonalEdgeStyle;rounded=0;orthogonalLoop=1;jettySize=auto;html=1;endArrow=diamond;endFill=1;" edge="1" parent="1" source="iAAeEu0Drj7qGyw_ox6g-49" target="iAAeEu0Drj7qGyw_ox6g-107">
          <mxGeometry relative="1" as="geometry" />
        </mxCell>
        <mxCell id="iAAeEu0Drj7qGyw_ox6g-49" value="Student" style="swimlane;fontStyle=0;childLayout=stackLayout;horizontal=1;startSize=26;fillColor=none;horizontalStack=0;resizeParent=1;resizeParentMax=0;resizeLast=0;collapsible=1;marginBottom=0;" vertex="1" parent="1">
          <mxGeometry x="740" y="430" width="140" height="52" as="geometry" />
        </mxCell>
        <mxCell id="iAAeEu0Drj7qGyw_ox6g-50" value="+ ID: Integer" style="text;strokeColor=none;fillColor=none;align=left;verticalAlign=top;spacingLeft=4;spacingRight=4;overflow=hidden;rotatable=0;points=[[0,0.5],[1,0.5]];portConstraint=eastwest;" vertex="1" parent="iAAeEu0Drj7qGyw_ox6g-49">
          <mxGeometry y="26" width="140" height="26" as="geometry" />
        </mxCell>
        <mxCell id="iAAeEu0Drj7qGyw_ox6g-70" style="edgeStyle=orthogonalEdgeStyle;rounded=0;orthogonalLoop=1;jettySize=auto;html=1;endArrow=diamond;endFill=1;" edge="1" parent="1" source="iAAeEu0Drj7qGyw_ox6g-54" target="iAAeEu0Drj7qGyw_ox6g-58">
          <mxGeometry relative="1" as="geometry" />
        </mxCell>
        <mxCell id="iAAeEu0Drj7qGyw_ox6g-54" value="Professor" style="swimlane;fontStyle=0;childLayout=stackLayout;horizontal=1;startSize=26;fillColor=none;horizontalStack=0;resizeParent=1;resizeParentMax=0;resizeLast=0;collapsible=1;marginBottom=0;" vertex="1" parent="1">
          <mxGeometry x="-220" y="430" width="140" height="52" as="geometry" />
        </mxCell>
        <mxCell id="iAAeEu0Drj7qGyw_ox6g-55" value="+ ID: Integer" style="text;strokeColor=none;fillColor=none;align=left;verticalAlign=top;spacingLeft=4;spacingRight=4;overflow=hidden;rotatable=0;points=[[0,0.5],[1,0.5]];portConstraint=eastwest;" vertex="1" parent="iAAeEu0Drj7qGyw_ox6g-54">
          <mxGeometry y="26" width="140" height="26" as="geometry" />
        </mxCell>
        <mxCell id="iAAeEu0Drj7qGyw_ox6g-67" style="edgeStyle=orthogonalEdgeStyle;rounded=0;orthogonalLoop=1;jettySize=auto;html=1;entryX=0.5;entryY=0;entryDx=0;entryDy=0;endArrow=diamond;endFill=1;" edge="1" parent="1" source="iAAeEu0Drj7qGyw_ox6g-56" target="iAAeEu0Drj7qGyw_ox6g-58">
          <mxGeometry relative="1" as="geometry" />
        </mxCell>
        <mxCell id="iAAeEu0Drj7qGyw_ox6g-56" value="Director" style="swimlane;fontStyle=0;childLayout=stackLayout;horizontal=1;startSize=26;fillColor=none;horizontalStack=0;resizeParent=1;resizeParentMax=0;resizeLast=0;collapsible=1;marginBottom=0;" vertex="1" parent="1">
          <mxGeometry x="240" y="280" width="140" height="50" as="geometry" />
        </mxCell>
        <mxCell id="iAAeEu0Drj7qGyw_ox6g-57" value="+ ID: Integer" style="text;strokeColor=none;fillColor=none;align=left;verticalAlign=top;spacingLeft=4;spacingRight=4;overflow=hidden;rotatable=0;points=[[0,0.5],[1,0.5]];portConstraint=eastwest;" vertex="1" parent="iAAeEu0Drj7qGyw_ox6g-56">
          <mxGeometry y="26" width="140" height="24" as="geometry" />
        </mxCell>
        <mxCell id="iAAeEu0Drj7qGyw_ox6g-112" style="edgeStyle=orthogonalEdgeStyle;rounded=0;orthogonalLoop=1;jettySize=auto;html=1;endArrow=diamond;endFill=1;" edge="1" parent="1" source="iAAeEu0Drj7qGyw_ox6g-58" target="iAAeEu0Drj7qGyw_ox6g-107">
          <mxGeometry relative="1" as="geometry" />
        </mxCell>
        <mxCell id="iAAeEu0Drj7qGyw_ox6g-58" value="Faculty" style="swimlane;fontStyle=0;childLayout=stackLayout;horizontal=1;startSize=26;fillColor=none;horizontalStack=0;resizeParent=1;resizeParentMax=0;resizeLast=0;collapsible=1;marginBottom=0;" vertex="1" parent="1">
          <mxGeometry x="240" y="430" width="140" height="52" as="geometry" />
        </mxCell>
        <mxCell id="iAAeEu0Drj7qGyw_ox6g-59" value="+ ID: Integer" style="text;strokeColor=none;fillColor=none;align=left;verticalAlign=top;spacingLeft=4;spacingRight=4;overflow=hidden;rotatable=0;points=[[0,0.5],[1,0.5]];portConstraint=eastwest;" vertex="1" parent="iAAeEu0Drj7qGyw_ox6g-58">
          <mxGeometry y="26" width="140" height="26" as="geometry" />
        </mxCell>
        <mxCell id="iAAeEu0Drj7qGyw_ox6g-63" style="edgeStyle=orthogonalEdgeStyle;rounded=0;orthogonalLoop=1;jettySize=auto;html=1;endArrow=diamond;endFill=1;" edge="1" parent="1" source="iAAeEu0Drj7qGyw_ox6g-60" target="iAAeEu0Drj7qGyw_ox6g-58">
          <mxGeometry relative="1" as="geometry" />
        </mxCell>
        <mxCell id="iAAeEu0Drj7qGyw_ox6g-60" value="Course" style="swimlane;fontStyle=0;childLayout=stackLayout;horizontal=1;startSize=26;fillColor=none;horizontalStack=0;resizeParent=1;resizeParentMax=0;resizeLast=0;collapsible=1;marginBottom=0;" vertex="1" parent="1">
          <mxGeometry x="240" y="580" width="140" height="52" as="geometry" />
        </mxCell>
        <mxCell id="iAAeEu0Drj7qGyw_ox6g-61" value="+ ID: Integer" style="text;strokeColor=none;fillColor=none;align=left;verticalAlign=top;spacingLeft=4;spacingRight=4;overflow=hidden;rotatable=0;points=[[0,0.5],[1,0.5]];portConstraint=eastwest;" vertex="1" parent="iAAeEu0Drj7qGyw_ox6g-60">
          <mxGeometry y="26" width="140" height="26" as="geometry" />
        </mxCell>
        <mxCell id="iAAeEu0Drj7qGyw_ox6g-65" value="1" style="text;html=1;strokeColor=none;fillColor=none;align=center;verticalAlign=middle;whiteSpace=wrap;rounded=0;" vertex="1" parent="1">
          <mxGeometry x="310" y="482" width="30" height="20" as="geometry" />
        </mxCell>
        <mxCell id="iAAeEu0Drj7qGyw_ox6g-66" value="1..*" style="text;html=1;strokeColor=none;fillColor=none;align=center;verticalAlign=middle;whiteSpace=wrap;rounded=0;" vertex="1" parent="1">
          <mxGeometry x="310" y="560" width="30" height="20" as="geometry" />
        </mxCell>
        <mxCell id="iAAeEu0Drj7qGyw_ox6g-68" value="1" style="text;html=1;strokeColor=none;fillColor=none;align=center;verticalAlign=middle;whiteSpace=wrap;rounded=0;" vertex="1" parent="1">
          <mxGeometry x="310" y="410" width="30" height="20" as="geometry" />
        </mxCell>
        <mxCell id="iAAeEu0Drj7qGyw_ox6g-69" value="1" style="text;html=1;strokeColor=none;fillColor=none;align=center;verticalAlign=middle;whiteSpace=wrap;rounded=0;" vertex="1" parent="1">
          <mxGeometry x="310" y="330" width="30" height="20" as="geometry" />
        </mxCell>
        <mxCell id="iAAeEu0Drj7qGyw_ox6g-71" value="1..*" style="text;html=1;strokeColor=none;fillColor=none;align=center;verticalAlign=middle;whiteSpace=wrap;rounded=0;" vertex="1" parent="1">
          <mxGeometry x="-80" y="430" width="30" height="20" as="geometry" />
        </mxCell>
        <mxCell id="iAAeEu0Drj7qGyw_ox6g-72" value="1..*" style="text;html=1;strokeColor=none;fillColor=none;align=center;verticalAlign=middle;whiteSpace=wrap;rounded=0;" vertex="1" parent="1">
          <mxGeometry x="210" y="430" width="30" height="20" as="geometry" />
        </mxCell>
        <mxCell id="iAAeEu0Drj7qGyw_ox6g-74" value="1..*" style="text;html=1;strokeColor=none;fillColor=none;align=center;verticalAlign=middle;whiteSpace=wrap;rounded=0;" vertex="1" parent="1">
          <mxGeometry x="380" y="430" width="30" height="20" as="geometry" />
        </mxCell>
        <mxCell id="iAAeEu0Drj7qGyw_ox6g-75" value="1" style="text;html=1;strokeColor=none;fillColor=none;align=center;verticalAlign=middle;whiteSpace=wrap;rounded=0;" vertex="1" parent="1">
          <mxGeometry x="710" y="430" width="30" height="20" as="geometry" />
        </mxCell>
        <mxCell id="iAAeEu0Drj7qGyw_ox6g-80" style="edgeStyle=orthogonalEdgeStyle;rounded=0;orthogonalLoop=1;jettySize=auto;html=1;endArrow=diamond;endFill=1;" edge="1" parent="1" source="iAAeEu0Drj7qGyw_ox6g-76" target="iAAeEu0Drj7qGyw_ox6g-60">
          <mxGeometry relative="1" as="geometry" />
        </mxCell>
        <mxCell id="iAAeEu0Drj7qGyw_ox6g-82" style="edgeStyle=orthogonalEdgeStyle;rounded=0;orthogonalLoop=1;jettySize=auto;html=1;entryX=0.489;entryY=1;entryDx=0;entryDy=0;entryPerimeter=0;endArrow=diamond;endFill=1;" edge="1" parent="1" source="iAAeEu0Drj7qGyw_ox6g-76" target="iAAeEu0Drj7qGyw_ox6g-55">
          <mxGeometry relative="1" as="geometry" />
        </mxCell>
        <mxCell id="iAAeEu0Drj7qGyw_ox6g-76" value="Teaching" style="swimlane;fontStyle=0;childLayout=stackLayout;horizontal=1;startSize=26;fillColor=none;horizontalStack=0;resizeParent=1;resizeParentMax=0;resizeLast=0;collapsible=1;marginBottom=0;" vertex="1" parent="1">
          <mxGeometry x="-70" y="550" width="140" height="78" as="geometry" />
        </mxCell>
        <mxCell id="iAAeEu0Drj7qGyw_ox6g-77" value="+ Semester: semesterID" style="text;strokeColor=none;fillColor=none;align=left;verticalAlign=top;spacingLeft=4;spacingRight=4;overflow=hidden;rotatable=0;points=[[0,0.5],[1,0.5]];portConstraint=eastwest;" vertex="1" parent="iAAeEu0Drj7qGyw_ox6g-76">
          <mxGeometry y="26" width="140" height="26" as="geometry" />
        </mxCell>
        <mxCell id="iAAeEu0Drj7qGyw_ox6g-116" value="+ Datetime: time" style="text;strokeColor=none;fillColor=none;align=left;verticalAlign=top;spacingLeft=4;spacingRight=4;overflow=hidden;rotatable=0;points=[[0,0.5],[1,0.5]];portConstraint=eastwest;" vertex="1" parent="iAAeEu0Drj7qGyw_ox6g-76">
          <mxGeometry y="52" width="140" height="26" as="geometry" />
        </mxCell>
        <mxCell id="iAAeEu0Drj7qGyw_ox6g-83" value="1..*" style="text;html=1;strokeColor=none;fillColor=none;align=center;verticalAlign=middle;whiteSpace=wrap;rounded=0;" vertex="1" parent="1">
          <mxGeometry x="70" y="550" width="30" height="20" as="geometry" />
        </mxCell>
        <mxCell id="iAAeEu0Drj7qGyw_ox6g-84" value="1..*" style="text;html=1;strokeColor=none;fillColor=none;align=center;verticalAlign=middle;whiteSpace=wrap;rounded=0;" vertex="1" parent="1">
          <mxGeometry y="530" width="30" height="20" as="geometry" />
        </mxCell>
        <mxCell id="iAAeEu0Drj7qGyw_ox6g-86" value="1..*" style="text;html=1;strokeColor=none;fillColor=none;align=center;verticalAlign=middle;whiteSpace=wrap;rounded=0;" vertex="1" parent="1">
          <mxGeometry x="210" y="585" width="30" height="20" as="geometry" />
        </mxCell>
        <mxCell id="iAAeEu0Drj7qGyw_ox6g-87" value="1" style="text;html=1;strokeColor=none;fillColor=none;align=center;verticalAlign=middle;whiteSpace=wrap;rounded=0;" vertex="1" parent="1">
          <mxGeometry x="-150" y="482" width="30" height="20" as="geometry" />
        </mxCell>
        <mxCell id="iAAeEu0Drj7qGyw_ox6g-100" style="edgeStyle=orthogonalEdgeStyle;rounded=0;orthogonalLoop=1;jettySize=auto;html=1;entryX=0.495;entryY=1;entryDx=0;entryDy=0;entryPerimeter=0;endArrow=diamond;endFill=1;" edge="1" parent="1" source="iAAeEu0Drj7qGyw_ox6g-88" target="iAAeEu0Drj7qGyw_ox6g-50">
          <mxGeometry relative="1" as="geometry" />
        </mxCell>
        <mxCell id="iAAeEu0Drj7qGyw_ox6g-88" value="Passing" style="swimlane;fontStyle=0;childLayout=stackLayout;horizontal=1;startSize=26;fillColor=none;horizontalStack=0;resizeParent=1;resizeParentMax=0;resizeLast=0;collapsible=1;marginBottom=0;" vertex="1" parent="1">
          <mxGeometry x="510" y="580" width="140" height="104" as="geometry" />
        </mxCell>
        <mxCell id="iAAeEu0Drj7qGyw_ox6g-89" value="+ Datetime: time" style="text;strokeColor=none;fillColor=none;align=left;verticalAlign=top;spacingLeft=4;spacingRight=4;overflow=hidden;rotatable=0;points=[[0,0.5],[1,0.5]];portConstraint=eastwest;" vertex="1" parent="iAAeEu0Drj7qGyw_ox6g-88">
          <mxGeometry y="26" width="140" height="26" as="geometry" />
        </mxCell>
        <mxCell id="iAAeEu0Drj7qGyw_ox6g-98" value="+ Mark: float" style="text;strokeColor=none;fillColor=none;align=left;verticalAlign=top;spacingLeft=4;spacingRight=4;overflow=hidden;rotatable=0;points=[[0,0.5],[1,0.5]];portConstraint=eastwest;" vertex="1" parent="iAAeEu0Drj7qGyw_ox6g-88">
          <mxGeometry y="52" width="140" height="26" as="geometry" />
        </mxCell>
        <mxCell id="iAAeEu0Drj7qGyw_ox6g-99" value="+ Grade: char" style="text;strokeColor=none;fillColor=none;align=left;verticalAlign=top;spacingLeft=4;spacingRight=4;overflow=hidden;rotatable=0;points=[[0,0.5],[1,0.5]];portConstraint=eastwest;" vertex="1" parent="iAAeEu0Drj7qGyw_ox6g-88">
          <mxGeometry y="78" width="140" height="26" as="geometry" />
        </mxCell>
        <mxCell id="iAAeEu0Drj7qGyw_ox6g-101" style="edgeStyle=orthogonalEdgeStyle;rounded=0;orthogonalLoop=1;jettySize=auto;html=1;exitX=0;exitY=0.5;exitDx=0;exitDy=0;endArrow=diamond;endFill=1;" edge="1" parent="1" source="iAAeEu0Drj7qGyw_ox6g-98" target="iAAeEu0Drj7qGyw_ox6g-60">
          <mxGeometry relative="1" as="geometry" />
        </mxCell>
        <mxCell id="iAAeEu0Drj7qGyw_ox6g-102" value="1" style="text;html=1;strokeColor=none;fillColor=none;align=center;verticalAlign=middle;whiteSpace=wrap;rounded=0;" vertex="1" parent="1">
          <mxGeometry x="810" y="482" width="30" height="20" as="geometry" />
        </mxCell>
        <mxCell id="iAAeEu0Drj7qGyw_ox6g-103" value="1..*" style="text;html=1;strokeColor=none;fillColor=none;align=center;verticalAlign=middle;whiteSpace=wrap;rounded=0;" vertex="1" parent="1">
          <mxGeometry x="580" y="560" width="30" height="20" as="geometry" />
        </mxCell>
        <mxCell id="iAAeEu0Drj7qGyw_ox6g-104" value="1..*" style="text;html=1;strokeColor=none;fillColor=none;align=center;verticalAlign=middle;whiteSpace=wrap;rounded=0;" vertex="1" parent="1">
          <mxGeometry x="480" y="650" width="30" height="20" as="geometry" />
        </mxCell>
        <mxCell id="iAAeEu0Drj7qGyw_ox6g-105" value="1..*" style="text;html=1;strokeColor=none;fillColor=none;align=center;verticalAlign=middle;whiteSpace=wrap;rounded=0;" vertex="1" parent="1">
          <mxGeometry x="384" y="585" width="30" height="20" as="geometry" />
        </mxCell>
        <mxCell id="iAAeEu0Drj7qGyw_ox6g-107" value="Enrolling" style="swimlane;fontStyle=0;childLayout=stackLayout;horizontal=1;startSize=26;fillColor=none;horizontalStack=0;resizeParent=1;resizeParentMax=0;resizeLast=0;collapsible=1;marginBottom=0;" vertex="1" parent="1">
          <mxGeometry x="490" y="430" width="140" height="52" as="geometry" />
        </mxCell>
        <mxCell id="iAAeEu0Drj7qGyw_ox6g-108" value="+ GroupID: Integer" style="text;strokeColor=none;fillColor=none;align=left;verticalAlign=top;spacingLeft=4;spacingRight=4;overflow=hidden;rotatable=0;points=[[0,0.5],[1,0.5]];portConstraint=eastwest;" vertex="1" parent="iAAeEu0Drj7qGyw_ox6g-107">
          <mxGeometry y="26" width="140" height="26" as="geometry" />
        </mxCell>
        <mxCell id="iAAeEu0Drj7qGyw_ox6g-114" value="1" style="text;html=1;strokeColor=none;fillColor=none;align=center;verticalAlign=middle;whiteSpace=wrap;rounded=0;" vertex="1" parent="1">
          <mxGeometry x="460" y="430" width="30" height="20" as="geometry" />
        </mxCell>
        <mxCell id="iAAeEu0Drj7qGyw_ox6g-115" value="1" style="text;html=1;strokeColor=none;fillColor=none;align=center;verticalAlign=middle;whiteSpace=wrap;rounded=0;" vertex="1" parent="1">
          <mxGeometry x="630" y="430" width="30" height="20" as="geometry" />
        </mxCell>
      </root>
    </mxGraphModel>
  </diagram>
</mxfile>
